<svg id="Layer_1" data-name="Layer 1" xmlns="http://www.w3.org/2000/svg" viewBox="0 0 415.84 63.11">
    <defs>
        <style>
            .letter {
                fill: none;
                stroke: #8c8e8e;
                stroke-miterlimit: 10;
                stroke-dasharray: 100;
                stroke-dashoffset: -100;
                animation: dash .4s linear forwards;
            }

            .letter[data-order="1"] { animation-delay: 0s; }
            .letter[data-order="2"] { animation-delay: .25s; }
            .letter[data-order="3"] { animation-delay: .5s; }
            .letter[data-order="4"] { animation-delay: .75s; }
            .letter[data-order="5"] { animation-delay: 1s; }
            .letter[data-order="6"] { animation-delay: 1.25s; }
            .letter[data-order="7"] { animation-delay: 1.5s; }
            .letter[data-order="8"] { animation-delay: 1.75s; }
            .letter[data-order="9"] { animation-delay: 2s; }
            .letter[data-order="10"] { animation-delay: 2.25s; }
            .letter[data-order="11"] { animation-delay: 2.5s; }
            .letter[data-order="12"] { animation-delay: 2.75s; }
            .letter[data-order="13"] { animation-delay: 3s; }
            .letter[data-order="14"] { animation-delay: 3.25s; }
            .letter[data-order="15"] { animation-delay: 3.5s; }
            .letter[data-order="16"] { animation-delay: 3.75s; }
            .letter[data-order="17"] { animation-delay: 4s; }
            .letter[data-order="18"] { animation-delay: 4.25s; }
            .letter[data-order="19"] { animation-delay: 4.5s; }
            .letter[data-order="20"] { animation-delay: 4.75s; }

            @keyframes dash {
                to {
                    stroke-dashoffset: 0;
                }
            }
        </style>
    </defs>
    <title>text_path</title>
    <path class="letter" data-order="1" d="M55.3,46.28m9,0.22a6.61,6.61,0,0,1-2.14.74q-1.72.26-5,.6a25.88,25.88,0,0,1-2.58.22,11.46,11.46,0,0,1-4.31-1.11q-2.7-1.25-2.61-3.07,0.11-2.06,3.15-3.53,4.44-2.12,5.53-2.06l2.19,0.34h0" transform="translate(-47.2 -17.2)"/>
    <path class="letter" data-order="2" d="M69.86,49.41H69.67q-1.82-.09-2.14-4.32a2.15,2.15,0,0,1,0-.35q0-.81.26-3.34,0.29-3.25.64-6.8,0.12-1.35.66-5,0.5-3.35.58-5a25,25,0,0,1,1-6.92H71" transform="translate(-47.2 -17.2)"/>
    <path class="letter" data-order="3" d="M75.62,49.7a6.08,6.08,0,0,1-.18-2q0.33-6.55,2-6.87m0.9-6.3A6.42,6.42,0,0,1,76.7,33" transform="translate(-47.2 -17.2)"/>
    <path class="letter" data-order="4" d="M97.72,48.21a6.63,6.63,0,0,1-2.14.74q-1.72.26-5,.6a25.71,25.71,0,0,1-2.58.22,11.48,11.48,0,0,1-4.31-1.11Q81,47.4,81.1,45.58q0.11-2.06,3.15-3.52,4.44-2.12,5.53-2.06L92,40.33h0M88.64,48" transform="translate(-47.2 -17.2)"/>
    <path class="letter" data-order="5" d="M113,53.21H113a4,4,0,0,1-1.79-1.13l-2.86-1.44c-0.34-.42-5.4-1.78-6-2.58m2.3-29.26a1.51,1.51,0,0,1,.9,1.37v0.21q0,0.8-.39,4.55-0.24,2.3-1.75,13.21l-0.07,1.33q-0.06,1.09-.14,2.15,0,0.4-.54,2.41a15.54,15.54,0,0,0-.42,2v0.07l0.13,1.94c0.38,0.51,1.07,0,1.07,0l0.77-.25c0.55-.21,1.26-0.37,1.8-0.61A54.74,54.74,0,0,0,112.59,45l3.18-1.28" transform="translate(-47.2 -17.2)"/>
    <path class="letter" data-order="6" d="M133.37,42.86q0.05-1.08,3.9-1.4c1.53-.13,5.24-1,6.17-1.18l9.07,0.29m-9.21,12.08c-0.09,0-.34-0.14-0.75-0.33a11.29,11.29,0,0,1-.47-4.11q0-.57.31-2.28t0.29-2.26c0-.35.17-2.61,0.21-3,0.3-.55.86-2.45,1.49-6.79q0.48-3.21,1.71-8.21l0.35-1.32" transform="translate(-47.2 -17.2)"/>
    <path class="letter" data-order="7" d="M172.17,48.13a6.13,6.13,0,0,1-.94,3.13q-0.77,1.16-5.17,2.1a24.78,24.78,0,0,1-5.93.74,10.53,10.53,0,0,1-4.61-1.37q-2.72-1.53-2.62-3.59a2.64,2.64,0,0,1,1.15-1.82,27.87,27.87,0,0,0,3-2.4,9,9,0,0,1,4.7-2.23,19.27,19.27,0,0,1,5.29-.53,5.61,5.61,0,0,1,1.95.67,6.3,6.3,0,0,1,1.75,1.2,7.34,7.34,0,0,1,1,2A6.09,6.09,0,0,1,172.17,48.13Z" transform="translate(-47.2 -17.2)"/>
    <path class="letter" data-order="8" d="M209.06,43.69l-0.52.89c-0.89.35-1.5,1-2.77,1.65q-0.16.08-2.51,2.24-8.14,7.44-9.87,7.35-0.4,0-1.4-1.9a16.5,16.5,0,0,1-1.12-2.32q-0.22-.79-0.83-2.84a7.81,7.81,0,0,0-1.4-2.64l0.07-1.46" transform="translate(-47.2 -17.2)"/>
    <path class="letter" data-order="9" d="M213,47.77a1,1,0,0,1,.58.92,0.45,0.45,0,0,0,0-.25c0,0.13,0,.29,0,0.47Q213.43,50.14,213,53t-0.37,3.25m1.19-14.77A6.42,6.42,0,0,1,212.23,40" transform="translate(-47.2 -17.2)"/>
    <path class="letter" data-order="10" d="M233.5,56.69a2.08,2.08,0,0,1-1.7.68l-6.14-.31a20.11,20.11,0,0,1-4.72-.88q-3.39-1-3.78-2.29a8.16,8.16,0,0,1-.36-2.75,4.48,4.48,0,0,1,2.46-3.91,8.5,8.5,0,0,1,4.71-1,6.24,6.24,0,0,1,3.69,1.21,3.25,3.25,0,0,1,1.25,2.84q0,1-3.44,2a13.72,13.72,0,0,1-4.06.78l-4.54-.44" transform="translate(-47.2 -17.2)"/>
    <path class="letter" data-order="11" d="M262.35,50.15l0,0.8a36.08,36.08,0,0,0-3.75,3.2q-5.67,5.53-7.54,5.44-1.51-.08-3.23-2.89l-2.47-4.09q-0.77.08-2.9,2.63t-3.56,2.36l-0.47-.29q-0.49-1-1.81-4.46a22.84,22.84,0,0,1-1.42-4.23" transform="translate(-47.2 -17.2)"/>
    <path class="letter" data-order="12" d="M278.72,58q0-.49,2.35-1.81,0.34-.19,4.13-3.3,2.87-2.34,4.38-2.26T291,54.52q0,0.31-.08,1t-0.12,1a4.09,4.09,0,0,1,.67.21h-0.09a54.41,54.41,0,0,0,6.14-3.08,10.61,10.61,0,0,1,1.42-.92,14.3,14.3,0,0,1,4.56-1.19q1.65,0.08,1.48,3.31,0,0.5-.29,3.27t-0.29,3.27" transform="translate(-47.2 -17.2)"/>
    <path class="letter" data-order="13" d="M309.51,80.1a3.56,3.56,0,0,1-.45-1.45q0.09-1.72,2.68-7.48,1-2.28,2.49-5.24,0.47-.76,1.55-2.81a15.56,15.56,0,0,1,.79-1.77,17.59,17.59,0,0,0,1.27-2.75s0.53-.9.53-1,0.47-1.38.54-1.56,0.62-3.63.63-3.69-1,2.42-1.12,2.42-1.38,3-2.69,3.46-2,.68-2.09.68a16,16,0,0,0-1.77.13q-1.4.16-1.6,0.14-1.4-.07-2.43-2.4a8.22,8.22,0,0,1-.82-3.69,3.53,3.53,0,0,1,.58-1.41" transform="translate(-47.2 -17.2)"/>
    <path class="letter" data-order="14" d="M338.24,63.05a3.56,3.56,0,0,1-.42-1.32c0-.13.05-0.46,0.14-1s0.1-.89.11-1.07a17.67,17.67,0,0,1,1.54-4.95,3.75,3.75,0,0,1,1.32-1.41q1.83-1.12,6.6-.88T353.06,54" transform="translate(-47.2 -17.2)"/>
    <path class="letter" data-order="15" d="M371.53,63.74a2.08,2.08,0,0,1-1.7.68l-6.14-.31a20.08,20.08,0,0,1-4.72-.88q-3.39-1-3.78-2.3a8.17,8.17,0,0,1-.36-2.75,4.48,4.48,0,0,1,2.46-3.91,8.49,8.49,0,0,1,4.71-1,6.22,6.22,0,0,1,3.69,1.21,3.24,3.24,0,0,1,1.25,2.84q0,1-3.44,2a13.72,13.72,0,0,1-4.06.78c-0.1,0-4.54-.71-4.62-0.73" transform="translate(-47.2 -17.2)"/>
    <path class="letter" data-order="16" d="M373.85,64.63a16.25,16.25,0,0,0,5.78.31,6.84,6.84,0,0,0,2.81-1.25,3.68,3.68,0,0,0-.33-2.79,3.34,3.34,0,0,0-1.65-1.46q-1.14-.46-4.12-1.79t-2.88-2.77q0.1-1.89,3.88-1.7a26.5,26.5,0,0,1,3.68.52,10.76,10.76,0,0,1,3.39,1" transform="translate(-47.2 -17.2)"/>
    <path class="letter" data-order="17" d="M404.18,56.53q0,0.73-2.82,3.51a28.43,28.43,0,0,1-3.62,3.22l-2.54,1.68a9.37,9.37,0,0,1-2.45,1,9,9,0,0,1-2.61.41q-1.77-.09-2.81-2.42a8.36,8.36,0,0,1-.76-3.92,9.25,9.25,0,0,1,.87-3.38" transform="translate(-47.2 -17.2)"/>
    <path class="letter" data-order="18" d="M404.38,64.47q0-.49,2.35-1.81,0.34-.19,4.13-3.3,2.87-2.34,4.38-2.26t1.44,3.85c0,0.21,0,.55-0.09,1s-0.11.82-.12,1a3.91,3.91,0,0,1,.67.21,0.14,0.14,0,0,1-.09,0,54.56,54.56,0,0,0,6.14-3.08,10.39,10.39,0,0,1,1.42-.92A14.31,14.31,0,0,1,429.17,58q1.65,0.08,1.48,3.31,0,0.5-.29,3.27t-0.29,3.27" transform="translate(-47.2 -17.2)"/>
    <path class="letter" data-order="19" d="M449,67.7a2.08,2.08,0,0,1-1.7.68l-6.14-.31a20.08,20.08,0,0,1-4.72-.88q-3.39-1-3.78-2.3a8.15,8.15,0,0,1-.36-2.75,4.48,4.48,0,0,1,2.46-3.91,8.49,8.49,0,0,1,4.71-1,6.23,6.23,0,0,1,3.69,1.21,3.25,3.25,0,0,1,1.25,2.84q0,1-3.44,2a13.75,13.75,0,0,1-4.06.79c-0.1,0-4.54-1.21-4.62-1.23" transform="translate(-47.2 -17.2)"/>
    <path class="letter" data-order="20" d="M454.78,65.44a2.31,2.31,0,0,1,.7,1.29q-0.22.91-.62,2.35m7.67-31.44q0,0.1-1.22,4.56-0.47,1.73-2,7.34A27,27,0,0,0,458,52.38l-1.91,9.78c0,0.17-.13.14-0.25,0.45" transform="translate(-47.2 -17.2)"/>
</svg>